<svg width="45" height="32" viewBox="0 0 45 32" fill="none" xmlns="http://www.w3.org/2000/svg">
<rect x="0.5" y="0.5" width="44" height="30.7647" rx="4.79412" fill="#1A1A1A" stroke="#333333"/>
<path fill-rule="evenodd" clip-rule="evenodd" d="M22.7372 22.2742C21.17 23.5951 19.1372 24.3926 16.9158 24.3926C11.9594 24.3926 7.94141 20.4224 7.94141 15.5249C7.94141 10.6275 11.9594 6.65729 16.9158 6.65729C19.1372 6.65729 21.1701 7.45475 22.7372 8.77573C24.3043 7.45476 26.3372 6.65731 28.5585 6.65731C33.515 6.65731 37.533 10.6275 37.533 15.525C37.533 20.4224 33.515 24.3926 28.5585 24.3926C26.3372 24.3926 24.3043 23.5951 22.7372 22.2742Z" fill="#ED0006"/>
<path fill-rule="evenodd" clip-rule="evenodd" d="M22.7363 22.2741C24.6658 20.6476 25.8893 18.2275 25.8893 15.525C25.8893 12.8225 24.6658 10.4024 22.7363 8.77588C24.3035 7.45484 26.3364 6.65735 28.5578 6.65735C33.5142 6.65735 37.5322 10.6275 37.5322 15.525C37.5322 20.4225 33.5142 24.3926 28.5578 24.3926C26.3364 24.3926 24.3035 23.5951 22.7363 22.2741Z" fill="#F9A000"/>
<path fill-rule="evenodd" clip-rule="evenodd" d="M22.737 22.274C24.6665 20.6475 25.8899 18.2274 25.8899 15.5249C25.8899 12.8224 24.6665 10.4022 22.737 8.77576C20.8075 10.4022 19.584 12.8224 19.584 15.5249C19.584 18.2274 20.8075 20.6475 22.737 22.274Z" fill="#FF5E00"/>
</svg>
