<svg width="45" height="32" viewBox="0 0 45 32" fill="none" xmlns="http://www.w3.org/2000/svg">
<rect x="0.5" y="0.5" width="44" height="30.7647" rx="4.79412" fill="#1A1A1A" stroke="#333333"/>
<path fill-rule="evenodd" clip-rule="evenodd" d="M12.5066 11.0424C12.1289 11.5082 11.5245 11.8755 10.9202 11.823C10.8447 11.1933 11.1405 10.5242 11.4868 10.1109C11.8645 9.63206 12.5255 9.29095 13.0606 9.26471C13.1235 9.92069 12.878 10.5636 12.5066 11.0424ZM13.0535 11.9477C12.5211 11.9157 12.0353 12.1145 11.6429 12.2751C11.3904 12.3784 11.1765 12.4659 11.0138 12.4659C10.8313 12.4659 10.6086 12.3737 10.3586 12.2702C10.031 12.1346 9.65651 11.9796 9.26377 11.987C8.36356 12.0001 7.5263 12.5315 7.06675 13.3777C6.12247 15.0701 6.82124 17.576 7.73404 18.9535C8.181 19.6357 8.71609 20.3836 9.42115 20.3573C9.73134 20.3451 9.95446 20.2465 10.1854 20.1444C10.4512 20.0268 10.7274 19.9047 11.1586 19.9047C11.5749 19.9047 11.839 20.0236 12.0925 20.1378C12.3336 20.2464 12.565 20.3506 12.9087 20.3442C13.6389 20.3311 14.0985 19.662 14.5454 18.9798C15.0278 18.2476 15.2397 17.533 15.2719 17.4245L15.2757 17.412C15.2749 17.4112 15.2689 17.4083 15.2584 17.4033C15.0972 17.3264 13.8648 16.7385 13.853 15.162C13.8411 13.8387 14.8305 13.1683 14.9862 13.0627C14.9957 13.0563 15.0021 13.052 15.005 13.0497C14.3755 12.0788 13.3934 11.9739 13.0535 11.9477ZM18.1076 20.272V10.0453H21.7903C23.6914 10.0453 25.0197 11.4097 25.0197 13.4039C25.0197 15.3981 23.6662 16.7757 21.7399 16.7757H19.631V20.272H18.1076ZM19.6328 11.3835H21.3891C22.7111 11.3835 23.4665 12.1182 23.4665 13.4105C23.4665 14.7028 22.7111 15.4441 21.3828 15.4441H19.6328V11.3835ZM30.0495 19.0454C29.6466 19.8457 28.759 20.3508 27.8021 20.3508C26.3857 20.3508 25.3973 19.4718 25.3973 18.1467C25.3973 16.8348 26.3542 16.0804 28.1232 15.9689L30.0243 15.8508V15.2866C30.0243 14.4536 29.5018 14.0009 28.5701 14.0009C27.8021 14.0009 27.2418 14.4142 27.1285 15.0439H25.7562C25.8002 13.7189 26.9963 12.7546 28.6142 12.7546C30.358 12.7546 31.4911 13.7057 31.4911 15.1817V20.2721H30.081V19.0454H30.0495ZM28.212 19.1372C27.3999 19.1372 26.8837 18.7305 26.8837 18.1073C26.8837 17.4645 27.3811 17.0906 28.3316 17.0315L30.025 16.92V17.4973C30.025 18.455 29.2444 19.1372 28.212 19.1372ZM36.1704 20.6722C35.5597 22.4631 34.861 23.0535 33.3753 23.0535C33.262 23.0535 32.8843 23.0403 32.7961 23.0141V21.7874C32.8906 21.8005 33.1235 21.8137 33.2431 21.8137C33.9167 21.8137 34.2944 21.5185 34.5273 20.751L34.6658 20.2983L32.0848 12.853H33.6775L35.4716 18.8945H35.5031L37.2972 12.853H38.8458L36.1704 20.6722Z" fill="white"/>
</svg>
